<?xml version="1.0" encoding="iso-8859-1"?>
<!-- Generator: Adobe Illustrator 19.0.0, SVG Export Plug-In . SVG Version: 6.00 Build 0)  -->
<svg version="1.1" id="Layer_1" xmlns="http://www.w3.org/2000/svg" xmlns:xlink="http://www.w3.org/1999/xlink" x="0px" y="0px"
	 viewBox="0 0 512 512" style="enable-background:new 0 0 512 512;" xml:space="preserve">
<rect x="68.267" style="fill:#F2F2F4;" width="375.467" height="512"/>
<rect x="256" style="fill:#DFDFE1;" width="187.733" height="512"/>
<path style="fill:#88888F;" d="M328.407,243.074L256,170.667l-72.407,72.407c-13.331,13.331-13.331,34.942,0,48.271
	c12.86,12.86,33.405,13.274,46.807,1.323v48.666h51.2v-48.664c13.404,11.952,33.949,11.535,46.807-1.323
	C341.738,278.016,341.738,256.404,328.407,243.074z"/>
<path style="fill:#56545A;" d="M328.407,243.074L256,170.667v170.667h25.6v-48.664c13.404,11.952,33.949,11.535,46.807-1.323
	C341.738,278.016,341.738,256.404,328.407,243.074z"/>
<g>
</g>
<g>
</g>
<g>
</g>
<g>
</g>
<g>
</g>
<g>
</g>
<g>
</g>
<g>
</g>
<g>
</g>
<g>
</g>
<g>
</g>
<g>
</g>
<g>
</g>
<g>
</g>
<g>
</g>
</svg>
