<?xml version="1.0" encoding="iso-8859-1"?>
<!-- Generator: Adobe Illustrator 19.0.0, SVG Export Plug-In . SVG Version: 6.00 Build 0)  -->
<svg version="1.1" id="Layer_1" xmlns="http://www.w3.org/2000/svg" xmlns:xlink="http://www.w3.org/1999/xlink" x="0px" y="0px"
	 viewBox="0 0 512 512" style="enable-background:new 0 0 512 512;" xml:space="preserve">
<polygon style="fill:#FFEA8A;" points="512,27.429 0,27.429 0,374.857 146.286,374.857 256,484.571 365.714,374.857 512,374.857 "/>
<polygon style="fill:#FFDB2D;" points="256,27.429 256,484.571 365.714,374.857 512,374.857 512,27.429 "/>
<g>
	<path style="fill:#88888F;" d="M192,182.857c-20.165,0-36.571-16.406-36.571-36.571s16.406-36.571,36.571-36.571
		s36.571,16.406,36.571,36.571S212.165,182.857,192,182.857z"/>
	<path style="fill:#88888F;" d="M192,310.857c-20.165,0-36.571-16.406-36.571-36.571s16.406-36.571,36.571-36.571
		s36.571,16.406,36.571,36.571S212.165,310.857,192,310.857z"/>
</g>
<path style="fill:#56545A;" d="M309.466,346.136l-43.061-33.986c23.1-29.268,35.31-64.49,35.31-101.864
	s-12.209-72.598-35.31-101.864l43.061-33.988c30.817,39.045,47.106,86.021,47.106,135.852S340.283,307.092,309.466,346.136z"/>
<g>
</g>
<g>
</g>
<g>
</g>
<g>
</g>
<g>
</g>
<g>
</g>
<g>
</g>
<g>
</g>
<g>
</g>
<g>
</g>
<g>
</g>
<g>
</g>
<g>
</g>
<g>
</g>
<g>
</g>
</svg>
