<?xml version="1.0" encoding="iso-8859-1"?>
<!-- Generator: Adobe Illustrator 19.0.0, SVG Export Plug-In . SVG Version: 6.00 Build 0)  -->
<svg version="1.1" id="Layer_1" xmlns="http://www.w3.org/2000/svg" xmlns:xlink="http://www.w3.org/1999/xlink" x="0px" y="0px"
	 viewBox="0 0 512.001 512.001" style="enable-background:new 0 0 512.001 512.001;" xml:space="preserve">
<rect x="234.667" y="71.111" style="fill:#88888F;" width="42.667" height="156.444"/>
<path style="fill:#DFDFE1;" d="M396.795,213.334H115.206c-62.737,0-114.738,50.18-115.203,112.916
	c-0.468,63.233,50.65,114.64,113.775,114.64c35.708,0,66.024-17.785,88.418-42.194c39.582-43.139,68.026-43.139,107.608,0
	c22.396,24.41,52.71,42.194,88.418,42.194c63.125,0,114.243-51.406,113.775-114.64C511.532,263.514,459.53,213.334,396.795,213.334z
	"/>
<path style="fill:#CFCDD2;" d="M396.795,213.334H256v153.007c17.007,0,34.012,10.785,53.804,32.354
	c22.396,24.41,52.71,42.194,88.418,42.194c63.125,0,114.243-51.406,113.775-114.64C511.532,263.514,459.53,213.334,396.795,213.334z
	"/>
<path style="fill:#7AB9E8;" d="M113.778,355.556c-15.684,0-28.444-12.76-28.444-28.444s12.76-28.444,28.444-28.444
	s28.444,12.76,28.444,28.444S129.462,355.556,113.778,355.556z"/>
<path style="fill:#FF4F19;" d="M398.223,355.556c-15.684,0-28.444-12.76-28.444-28.444s12.76-28.444,28.444-28.444
	c15.684,0,28.444,12.76,28.444,28.444S413.907,355.556,398.223,355.556z"/>
<rect x="213.334" y="263.111" style="fill:#88888F;" width="85.333" height="42.667"/>
<rect x="256" y="263.111" style="fill:#56545A;" width="42.667" height="42.667"/>
<g>
</g>
<g>
</g>
<g>
</g>
<g>
</g>
<g>
</g>
<g>
</g>
<g>
</g>
<g>
</g>
<g>
</g>
<g>
</g>
<g>
</g>
<g>
</g>
<g>
</g>
<g>
</g>
<g>
</g>
</svg>
