<?xml version="1.0" encoding="iso-8859-1"?>
<!-- Generator: Adobe Illustrator 19.0.0, SVG Export Plug-In . SVG Version: 6.00 Build 0)  -->
<svg version="1.1" id="Layer_1" xmlns="http://www.w3.org/2000/svg" xmlns:xlink="http://www.w3.org/1999/xlink" x="0px" y="0px"
	 viewBox="0 0 512 512" style="enable-background:new 0 0 512 512;" xml:space="preserve">
<polygon style="fill:#DFDFE1;" points="102.4,69.486 512,69.486 512,98.743 438.857,274.286 102.4,274.286 "/>
<path style="fill:#56545A;" d="M168.229,442.514c-16.132,0-29.257-13.125-29.257-29.257S152.096,384,168.229,384
	s29.257,13.125,29.257,29.257S184.361,442.514,168.229,442.514z"/>
<path style="fill:#424144;" d="M387.657,442.514c-16.132,0-29.257-13.125-29.257-29.257S371.525,384,387.657,384
	c16.132,0,29.257,13.125,29.257,29.257S403.79,442.514,387.657,442.514z"/>
<path style="fill:#88888F;" d="M453.486,384h-307.2c-36.298,0-65.829-29.531-65.829-65.829v-204.8H0V69.486h124.343v248.686
	c0,12.099,9.844,21.943,21.943,21.943h307.2V384z"/>
<polygon style="fill:#CFCDD2;" points="512,69.486 277.943,69.486 277.943,274.286 438.857,274.286 512,98.743 "/>
<rect x="277.943" y="340.114" style="fill:#56545A;" width="175.543" height="43.886"/>
<g>
</g>
<g>
</g>
<g>
</g>
<g>
</g>
<g>
</g>
<g>
</g>
<g>
</g>
<g>
</g>
<g>
</g>
<g>
</g>
<g>
</g>
<g>
</g>
<g>
</g>
<g>
</g>
<g>
</g>
</svg>
