<?xml version="1.0" encoding="iso-8859-1"?>
<!-- Generator: Adobe Illustrator 19.0.0, SVG Export Plug-In . SVG Version: 6.00 Build 0)  -->
<svg version="1.1" id="Layer_1" xmlns="http://www.w3.org/2000/svg" xmlns:xlink="http://www.w3.org/1999/xlink" x="0px" y="0px"
	 viewBox="0 0 512.001 512.001" style="enable-background:new 0 0 512.001 512.001;" xml:space="preserve">
<path style="fill:#F2F2F4;" d="M384,128c-70.693-70.693-185.308-70.693-256.001,0L0,256.001l128,128
	c70.693,70.693,185.308,70.693,256.001,0l128-128L384,128z"/>
<path style="fill:#DFDFE1;" d="M384,128c-35.346-35.346-81.673-53.019-128-53.019V437.02c46.327,0,92.653-17.674,128-53.019l128-128
	L384,128z"/>
<circle style="fill:#7AB9E8;" cx="256.007" cy="256.007" r="90.51"/>
<path style="fill:#579ADF;" d="M256.001,165.491V346.51c49.987,0,90.51-40.523,90.51-90.51S305.988,165.491,256.001,165.491z"/>
<circle style="fill:#88888F;" cx="256.007" cy="256.007" r="45.255"/>
<path style="fill:#56545A;" d="M256.001,210.746v90.51c24.994,0,45.255-20.261,45.255-45.255S280.993,210.746,256.001,210.746z"/>
<g>
</g>
<g>
</g>
<g>
</g>
<g>
</g>
<g>
</g>
<g>
</g>
<g>
</g>
<g>
</g>
<g>
</g>
<g>
</g>
<g>
</g>
<g>
</g>
<g>
</g>
<g>
</g>
<g>
</g>
</svg>
