<?xml version="1.0" encoding="iso-8859-1"?>
<!-- Generator: Adobe Illustrator 19.0.0, SVG Export Plug-In . SVG Version: 6.00 Build 0)  -->
<svg version="1.1" id="Layer_1" xmlns="http://www.w3.org/2000/svg" xmlns:xlink="http://www.w3.org/1999/xlink" x="0px" y="0px"
	 viewBox="0 0 512 512" style="enable-background:new 0 0 512 512;" xml:space="preserve">
<rect x="68.267" style="fill:#F2F2F4;" width="375.467" height="512"/>
<rect x="256" style="fill:#DFDFE1;" width="187.733" height="512"/>
<path style="fill:#FF6643;" d="M183.593,263.069L256,335.478l72.407-72.407c13.329-13.331,13.329-34.942,0-48.271
	c-13.331-13.329-34.942-13.329-48.271,0L256,238.933l-24.136-24.136c-13.331-13.329-34.942-13.329-48.271,0
	C170.262,228.127,170.262,249.74,183.593,263.069z"/>
<path style="fill:#FF4F19;" d="M328.407,214.798c-13.329-13.329-34.942-13.329-48.271,0L256,238.933v96.544l72.407-72.407
	C341.738,249.738,341.738,228.127,328.407,214.798z"/>
<g>
</g>
<g>
</g>
<g>
</g>
<g>
</g>
<g>
</g>
<g>
</g>
<g>
</g>
<g>
</g>
<g>
</g>
<g>
</g>
<g>
</g>
<g>
</g>
<g>
</g>
<g>
</g>
<g>
</g>
</svg>
