<?xml version="1.0" encoding="iso-8859-1"?>
<!-- Generator: Adobe Illustrator 19.0.0, SVG Export Plug-In . SVG Version: 6.00 Build 0)  -->
<svg version="1.1" id="Layer_1" xmlns="http://www.w3.org/2000/svg" xmlns:xlink="http://www.w3.org/1999/xlink" x="0px" y="0px"
	 viewBox="0 0 512 512" style="enable-background:new 0 0 512 512;" xml:space="preserve">
<path style="fill:#FFEA8A;" d="M451.765,195.765H180.706V90.353H0v331.294h180.706V316.235h30.118L256,361.412l45.176-45.176
	l45.176,45.176l45.176-45.176h60.235L512,256L451.765,195.765z M90.353,286.118c-16.607,0-30.118-13.511-30.118-30.118
	s13.511-30.118,30.118-30.118s30.118,13.511,30.118,30.118S106.96,286.118,90.353,286.118z"/>
<polygon style="fill:#FFDB2D;" points="451.765,195.765 225.882,195.765 225.882,331.294 256,361.412 301.176,316.235 
	346.353,361.412 391.529,316.235 451.765,316.235 512,256 "/>
<g>
</g>
<g>
</g>
<g>
</g>
<g>
</g>
<g>
</g>
<g>
</g>
<g>
</g>
<g>
</g>
<g>
</g>
<g>
</g>
<g>
</g>
<g>
</g>
<g>
</g>
<g>
</g>
<g>
</g>
</svg>
