<?xml version="1.0" encoding="iso-8859-1"?>
<!-- Generator: Adobe Illustrator 19.0.0, SVG Export Plug-In . SVG Version: 6.00 Build 0)  -->
<svg version="1.1" id="Layer_1" xmlns="http://www.w3.org/2000/svg" xmlns:xlink="http://www.w3.org/1999/xlink" x="0px" y="0px"
	 viewBox="0 0 512 512" style="enable-background:new 0 0 512 512;" xml:space="preserve">
<rect x="71.111" y="231.111" style="fill:#F2F2F4;" width="85.333" height="71.111"/>
<rect x="355.556" y="231.111" style="fill:#DFDFE1;" width="85.333" height="71.111"/>
<polygon style="fill:#B4D8F1;" points="85.333,216.889 85.333,188.444 170.667,103.111 341.333,103.111 433.778,195.556 
	433.778,216.889 "/>
<polygon style="fill:#98C8ED;" points="433.778,195.556 341.333,103.111 327.111,103.111 213.333,216.889 433.778,216.889 "/>
<rect x="35.556" y="344.889" style="fill:#88888F;" width="85.333" height="85.333"/>
<rect x="391.111" y="344.889" style="fill:#56545A;" width="85.333" height="85.333"/>
<path style="fill:#FF6643;" d="M471.059,202.667L350.17,81.778H161.83L40.942,202.667H0v42.667h35.556v113.778h440.889V245.333H512
	v-42.667H471.059z M179.503,124.444h152.993l78.222,78.222H101.281L179.503,124.444z M142.222,288H85.333v-42.667h56.889V288z
	 M426.667,288h-56.889v-42.667h56.889V288z"/>
<path style="fill:#FF4F19;" d="M471.059,202.667L350.17,81.778H256v42.667h76.497l78.222,78.222H256v156.444h220.444V245.333H512
	v-42.667H471.059z M426.667,288h-56.889v-42.667h56.889V288z"/>
<g>
</g>
<g>
</g>
<g>
</g>
<g>
</g>
<g>
</g>
<g>
</g>
<g>
</g>
<g>
</g>
<g>
</g>
<g>
</g>
<g>
</g>
<g>
</g>
<g>
</g>
<g>
</g>
<g>
</g>
</svg>
