<?xml version="1.0" encoding="iso-8859-1"?>
<!-- Generator: Adobe Illustrator 19.0.0, SVG Export Plug-In . SVG Version: 6.00 Build 0)  -->
<svg version="1.1" id="Layer_1" xmlns="http://www.w3.org/2000/svg" xmlns:xlink="http://www.w3.org/1999/xlink" x="0px" y="0px"
	 viewBox="0 0 512 512" style="enable-background:new 0 0 512 512;" xml:space="preserve">
<polygon style="fill:#947859;" points="453.338,0 404.549,48.789 419.186,63.426 336.243,146.368 365.518,175.641 448.459,92.699 
	463.095,107.337 511.885,58.547 "/>
<path style="fill:#B29476;" d="M347.327,328.587c4.383-3.233,8.59-6.812,12.585-10.739c45.692-44.911,46.64-119.225,2.063-165.243
	c-45.687-47.162-120.964-47.614-167.22-1.358c-4.25,4.25-8.102,8.749-11.557,13.446c-7.078,9.623-18.033,15.689-29.947,16.567
	c-37.538,2.763-74.313,18.262-103.3,46.505c-65.147,63.474-66.635,168.853-3.218,234.056
	c64.523,66.341,170.618,66.899,235.842,1.677c29.341-29.341,45.366-66.952,48.084-105.329
	C331.497,346.325,337.772,335.637,347.327,328.587z"/>
<path style="fill:#A58868;" d="M330.658,358.169c0.839-11.844,7.114-22.532,16.669-29.582c4.383-3.233,8.59-6.812,12.585-10.739
	c45.692-44.911,46.64-119.225,2.063-165.243c-0.444-0.458-0.896-0.904-1.344-1.352L48.397,463.489
	c64.669,64.667,169.51,64.678,234.178,0.01C311.916,434.157,327.943,396.546,330.658,358.169z"/>
<g>
	<path style="fill:#56545A;" d="M199.633,312.251c-16.141-16.142-16.141-42.405,0-58.547c16.141-16.141,42.406-16.141,58.547,0
		c16.142,16.141,16.142,42.406,0,58.547C242.04,328.392,215.775,328.392,199.633,312.251z M228.924,282.958l-0.018,0.019
		C228.92,282.965,228.924,282.958,228.924,282.958z"/>
	
		<rect x="114.332" y="335.459" transform="matrix(-0.7071 -0.7071 0.7071 -0.7071 14.0067 718.1184)" style="fill:#56545A;" width="82.797" height="41.399"/>
</g>
<g>
	<path style="fill:#424144;" d="M199.633,312.251c16.141,16.142,42.406,16.142,58.547,0c16.142-16.142,16.142-42.405,0-58.547
		L199.633,312.251z"/>
	
		<rect x="149.661" y="350.099" transform="matrix(0.7071 0.7071 -0.7071 0.7071 312.0915 -11.8585)" style="fill:#424144;" width="41.399" height="41.399"/>
</g>
<g>
</g>
<g>
</g>
<g>
</g>
<g>
</g>
<g>
</g>
<g>
</g>
<g>
</g>
<g>
</g>
<g>
</g>
<g>
</g>
<g>
</g>
<g>
</g>
<g>
</g>
<g>
</g>
<g>
</g>
</svg>
