<?xml version="1.0" encoding="iso-8859-1"?>
<!-- Generator: Adobe Illustrator 19.0.0, SVG Export Plug-In . SVG Version: 6.00 Build 0)  -->
<svg version="1.1" id="Layer_1" xmlns="http://www.w3.org/2000/svg" xmlns:xlink="http://www.w3.org/1999/xlink" x="0px" y="0px"
	 viewBox="0 0 512 512" style="enable-background:new 0 0 512 512;" xml:space="preserve">
<path style="fill:#F2F2F4;" d="M187.733,232.107V68.267C187.733,30.564,218.298,0,256,0s68.267,30.564,68.267,68.267v163.84
	c0,37.702-30.564,68.267-68.267,68.267S187.733,269.809,187.733,232.107z"/>
<rect x="235.52" y="368.64" style="fill:#424144;" width="40.96" height="122.88"/>
<g>
	<path style="fill:#88888F;" d="M324.267,129.707v-61.44C324.267,30.564,293.702,0,256,0s-68.267,30.564-68.267,68.267v61.44
		H324.267z"/>
	<path style="fill:#88888F;" d="M187.733,170.667v61.44c0,37.702,30.564,68.267,68.267,68.267s68.267-30.564,68.267-68.267v-61.44
		H187.733z"/>
	<path style="fill:#88888F;" d="M256,382.293c-82.813,0-150.187-67.374-150.187-150.187h40.96
		c0,60.228,48.999,109.227,109.227,109.227s109.227-48.999,109.227-109.227h40.96C406.187,314.92,338.813,382.293,256,382.293z"/>
	<rect x="187.733" y="471.04" style="fill:#88888F;" width="136.533" height="40.96"/>
</g>
<g>
	<path style="fill:#56545A;" d="M256,300.373c37.702,0,68.267-30.564,68.267-68.267v-61.44H256V300.373z"/>
	<path style="fill:#56545A;" d="M256,0v129.707h68.267v-61.44C324.267,30.564,293.702,0,256,0z"/>
	<rect x="256" y="471.04" style="fill:#56545A;" width="68.267" height="40.96"/>
	<path style="fill:#56545A;" d="M365.227,232.107c0,60.228-48.999,109.227-109.227,109.227v40.96
		c82.813,0,150.187-67.374,150.187-150.187H365.227z"/>
</g>
<g>
</g>
<g>
</g>
<g>
</g>
<g>
</g>
<g>
</g>
<g>
</g>
<g>
</g>
<g>
</g>
<g>
</g>
<g>
</g>
<g>
</g>
<g>
</g>
<g>
</g>
<g>
</g>
<g>
</g>
</svg>
