<?xml version="1.0" encoding="iso-8859-1"?>
<!-- Generator: Adobe Illustrator 19.0.0, SVG Export Plug-In . SVG Version: 6.00 Build 0)  -->
<svg version="1.1" id="Layer_1" xmlns="http://www.w3.org/2000/svg" xmlns:xlink="http://www.w3.org/1999/xlink" x="0px" y="0px"
	 viewBox="0 0 512 512" style="enable-background:new 0 0 512 512;" xml:space="preserve">
<path style="fill:#88888F;" d="M438.857,365.714c-18.547,0-35.471,6.917-48.364,18.295L146.037,261.78
	c0.15-1.909,0.249-3.833,0.249-5.78c0-1.947-0.099-3.871-0.249-5.78l244.456-122.227c12.893,11.376,29.817,18.293,48.364,18.293
	c40.395,0,73.143-32.748,73.143-73.143S479.252,0,438.857,0s-73.143,32.748-73.143,73.143c0,1.947,0.099,3.871,0.249,5.78
	L121.507,201.152c-12.893-11.377-29.817-18.295-48.364-18.295C32.748,182.857,0,215.605,0,256s32.748,73.143,73.143,73.143
	c18.547,0,35.471-6.917,48.364-18.295l244.456,122.227c-0.15,1.911-0.249,3.835-0.249,5.782c0,40.395,32.748,73.143,73.143,73.143
	S512,479.252,512,438.857S479.252,365.714,438.857,365.714z"/>
<g>
	<path style="fill:#56545A;" d="M274.286,124.762v61.332l116.208-58.103c12.893,11.377,29.817,18.295,48.364,18.295
		c40.395,0,73.143-32.748,73.143-73.143S479.252,0,438.857,0s-73.143,32.748-73.143,73.143c0,1.947,0.099,3.871,0.249,5.78
		L274.286,124.762z"/>
	<path style="fill:#56545A;" d="M438.857,365.714c-18.547,0-35.471,6.917-48.364,18.295l-116.208-58.105v61.332l91.677,45.839
		c-0.15,1.911-0.249,3.834-0.249,5.782c0,40.395,32.748,73.143,73.143,73.143S512,479.252,512,438.857
		S479.252,365.714,438.857,365.714z"/>
</g>
<g>
</g>
<g>
</g>
<g>
</g>
<g>
</g>
<g>
</g>
<g>
</g>
<g>
</g>
<g>
</g>
<g>
</g>
<g>
</g>
<g>
</g>
<g>
</g>
<g>
</g>
<g>
</g>
<g>
</g>
</svg>
