<?xml version="1.0" encoding="iso-8859-1"?>
<!-- Generator: Adobe Illustrator 19.0.0, SVG Export Plug-In . SVG Version: 6.00 Build 0)  -->
<svg version="1.1" id="Layer_1" xmlns="http://www.w3.org/2000/svg" xmlns:xlink="http://www.w3.org/1999/xlink" x="0px" y="0px"
	 viewBox="0 0 512 512" style="enable-background:new 0 0 512 512;" xml:space="preserve">
<path style="fill:#F2F2F4;" d="M409.6,512c56.554,0,102.4-45.846,102.4-102.4V273.067c0-56.554-45.846-102.4-102.4-102.4H290.133
	V46.892C290.133,20.994,269.14,0,243.241,0c-22.352,0-41.597,15.776-45.981,37.695l-26.593,132.972H153.6V512H409.6z"/>
<rect y="170.667" style="fill:#7AB9E8;" width="170.667" height="341.333"/>
<path style="fill:#DFDFE1;" d="M409.6,170.667H290.133V46.892C290.133,20.994,269.14,0,243.241,0c-1.451,0-2.886,0.073-4.308,0.203
	V512H409.6c56.554,0,102.4-45.846,102.4-102.4V273.067C512,216.513,466.154,170.667,409.6,170.667z"/>
<g>
</g>
<g>
</g>
<g>
</g>
<g>
</g>
<g>
</g>
<g>
</g>
<g>
</g>
<g>
</g>
<g>
</g>
<g>
</g>
<g>
</g>
<g>
</g>
<g>
</g>
<g>
</g>
<g>
</g>
</svg>
