<?xml version="1.0" encoding="iso-8859-1"?>
<!-- Generator: Adobe Illustrator 19.0.0, SVG Export Plug-In . SVG Version: 6.00 Build 0)  -->
<svg version="1.1" id="Layer_1" xmlns="http://www.w3.org/2000/svg" xmlns:xlink="http://www.w3.org/1999/xlink" x="0px" y="0px"
	 viewBox="0 0 512 512" style="enable-background:new 0 0 512 512;" xml:space="preserve">
<circle style="fill:#F2F2F4;" cx="256" cy="256" r="256"/>
<g>
	<path style="fill:#88888F;" d="M228.571,182.857h54.857V1.465C274.416,0.505,265.267,0,256,0s-18.416,0.505-27.429,1.465V182.857z"
		/>
	<path style="fill:#88888F;" d="M84.204,445.791c6.843,6.197,14.029,12.019,21.513,17.456l2.266,1.646
		c6.632,4.707,13.497,9.11,20.575,13.18l106.64-146.778l-44.381-32.243L84.204,445.791z"/>
	<path style="fill:#88888F;" d="M177.96,259.483l16.953-52.173L22.354,151.243c-3.026,6.74-5.762,13.641-8.207,20.676l-3.202,9.852
		c-2.145,7.093-3.997,14.312-5.53,21.65L177.96,259.483z"/>
	<polygon style="fill:#88888F;" points="256,123.624 130.103,215.093 178.191,363.094 333.809,363.094 381.897,215.093 	"/>
</g>
<path style="fill:#56545A;" d="M371.419,247.338l135.164-43.919c-1.532-7.338-3.383-14.557-5.53-21.65l-3.202-9.852
	c-2.445-7.035-5.18-13.934-8.207-20.676l-135.179,43.922L256,123.624v239.47h43.904l83.536,114.981
	c7.078-4.07,13.943-8.474,20.575-13.18l2.266-1.646c7.484-5.436,14.671-11.259,21.513-17.456l-83.509-114.942L371.419,247.338z"/>
<g>
</g>
<g>
</g>
<g>
</g>
<g>
</g>
<g>
</g>
<g>
</g>
<g>
</g>
<g>
</g>
<g>
</g>
<g>
</g>
<g>
</g>
<g>
</g>
<g>
</g>
<g>
</g>
<g>
</g>
</svg>
