<?xml version="1.0" encoding="iso-8859-1"?>
<!-- Generator: Adobe Illustrator 19.0.0, SVG Export Plug-In . SVG Version: 6.00 Build 0)  -->
<svg version="1.1" id="Layer_1" xmlns="http://www.w3.org/2000/svg" xmlns:xlink="http://www.w3.org/1999/xlink" x="0px" y="0px"
	 viewBox="0 0 512 512" style="enable-background:new 0 0 512 512;" xml:space="preserve">
<polygon style="fill:#FFEA8A;" points="512,27.429 0,27.429 0,374.857 146.286,374.857 256,484.571 365.714,374.857 512,374.857 "/>
<polygon style="fill:#FFDB2D;" points="256,27.429 256,484.571 365.714,374.857 512,374.857 512,27.429 "/>
<g>
	<path style="fill:#88888F;" d="M256,237.714c-20.165,0-36.571-16.406-36.571-36.571s16.406-36.571,36.571-36.571
		s36.571,16.406,36.571,36.571S276.165,237.714,256,237.714z"/>
	<path style="fill:#88888F;" d="M128,237.714c-20.165,0-36.571-16.406-36.571-36.571s16.406-36.571,36.571-36.571
		s36.571,16.406,36.571,36.571S148.165,237.714,128,237.714z"/>
</g>
<path style="fill:#56545A;" d="M384,237.714c-20.165,0-36.571-16.406-36.571-36.571s16.406-36.571,36.571-36.571
	s36.571,16.406,36.571,36.571S404.165,237.714,384,237.714z"/>
<g>
</g>
<g>
</g>
<g>
</g>
<g>
</g>
<g>
</g>
<g>
</g>
<g>
</g>
<g>
</g>
<g>
</g>
<g>
</g>
<g>
</g>
<g>
</g>
<g>
</g>
<g>
</g>
<g>
</g>
</svg>
