<?xml version="1.0" encoding="iso-8859-1"?>
<!-- Generator: Adobe Illustrator 19.0.0, SVG Export Plug-In . SVG Version: 6.00 Build 0)  -->
<svg version="1.1" id="Layer_1" xmlns="http://www.w3.org/2000/svg" xmlns:xlink="http://www.w3.org/1999/xlink" x="0px" y="0px"
	 viewBox="0 0 512 512" style="enable-background:new 0 0 512 512;" xml:space="preserve">
<path style="fill:#FF6643;" d="M512,177.778H0v42.667h42.667v192c0,23.565,19.102,42.667,42.667,42.667h341.333
	c23.563,0,42.667-19.102,42.667-42.667v-192H512V177.778z"/>
<path style="fill:#FF4F19;" d="M256,177.778v277.333h170.667c23.563,0,42.667-19.102,42.667-42.667v-192H512v-42.667H256z"/>
<rect x="234.667" y="56.889" style="fill:#DFDFE1;" width="42.667" height="142.222"/>
<rect x="163.556" y="277.333" style="fill:#FF4F19;" width="42.667" height="113.778"/>
<rect x="305.778" y="277.333" style="fill:#AF2E08;" width="42.667" height="113.778"/>
<path style="fill:#DFDFE1;" d="M256,241.778c-23.526,0-42.667-19.14-42.667-42.667s19.14-42.667,42.667-42.667
	s42.667,19.14,42.667,42.667S279.526,241.778,256,241.778z M255.999,199.084l0.001,0.027
	C256,199.093,255.999,199.084,255.999,199.084z"/>
<path style="fill:#CFCDD2;" d="M256,156.444v85.333c23.526,0,42.667-19.14,42.667-42.667S279.526,156.444,256,156.444z"/>
<g>
</g>
<g>
</g>
<g>
</g>
<g>
</g>
<g>
</g>
<g>
</g>
<g>
</g>
<g>
</g>
<g>
</g>
<g>
</g>
<g>
</g>
<g>
</g>
<g>
</g>
<g>
</g>
<g>
</g>
</svg>
