<?xml version="1.0" encoding="iso-8859-1"?>
<!-- Generator: Adobe Illustrator 19.0.0, SVG Export Plug-In . SVG Version: 6.00 Build 0)  -->
<svg version="1.1" id="Layer_1" xmlns="http://www.w3.org/2000/svg" xmlns:xlink="http://www.w3.org/1999/xlink" x="0px" y="0px"
	 viewBox="0 0 512 512" style="enable-background:new 0 0 512 512;" xml:space="preserve">
<path style="fill:#CFCDD2;" d="M459.223,0L459.223,0L256,203.223L52.779,0l0,0c-32.023,32.025-32.023,83.947,0,115.97
	l145.236,145.236l-73.181,73.183l39.408,39.408l91.76-91.76l91.76,91.76l39.406-39.408l-73.181-73.181l145.236-145.236
	C491.247,83.947,491.247,32.025,459.223,0z"/>
<path style="fill:#AEADB3;" d="M459.223,0L256,203.223v78.816l91.76,91.76l39.408-39.41l-73.181-73.181l145.236-145.236
	C491.247,83.947,491.247,32.025,459.223,0z"/>
<path style="fill:#DFDFE1;" d="M107.383,512C51.044,512,5.208,466.165,5.208,409.826s45.835-102.174,102.174-102.174
	s102.174,45.835,102.174,102.174S163.722,512,107.383,512z M107.383,363.383c-25.609,0-46.443,20.834-46.443,46.443
	s20.834,46.443,46.443,46.443s46.443-20.834,46.443-46.443S132.993,363.383,107.383,363.383z"/>
<path style="fill:#CFCDD2;" d="M404.617,512c-56.339,0-102.174-45.835-102.174-102.174s45.835-102.174,102.174-102.174
	s102.174,45.835,102.174,102.174S460.956,512,404.617,512z M404.617,363.383c-25.609,0-46.443,20.834-46.443,46.443
	s20.834,46.443,46.443,46.443s46.443-20.834,46.443-46.443S430.228,363.383,404.617,363.383z"/>
<g>
</g>
<g>
</g>
<g>
</g>
<g>
</g>
<g>
</g>
<g>
</g>
<g>
</g>
<g>
</g>
<g>
</g>
<g>
</g>
<g>
</g>
<g>
</g>
<g>
</g>
<g>
</g>
<g>
</g>
</svg>
