<?xml version="1.0" encoding="iso-8859-1"?>
<!-- Generator: Adobe Illustrator 19.0.0, SVG Export Plug-In . SVG Version: 6.00 Build 0)  -->
<svg version="1.1" id="Layer_1" xmlns="http://www.w3.org/2000/svg" xmlns:xlink="http://www.w3.org/1999/xlink" x="0px" y="0px"
	 viewBox="0 0 512 512" style="enable-background:new 0 0 512 512;" xml:space="preserve">
<rect style="fill:#F2F2F4;" width="512" height="512"/>
<rect x="256" style="fill:#DFDFE1;" width="256" height="512"/>
<path style="fill:#7AB9E8;" d="M281.284,266.024c19.469-9.408,32.9-29.343,32.9-52.414c-0.002-32.132-26.05-58.181-58.183-58.181
	s-58.181,26.05-58.181,58.181c0,23.073,13.431,43.006,32.9,52.414c-37.627,1.066-67.809,31.881-67.809,69.767v11.637h186.181
	v-11.637C349.091,297.907,318.91,267.092,281.284,266.024z"/>
<path style="fill:#579ADF;" d="M281.284,266.024c19.469-9.408,32.9-29.343,32.9-52.414c-0.002-32.132-26.05-58.181-58.183-58.181
	v192h93.091v-11.637C349.091,297.907,318.91,267.092,281.284,266.024z"/>
<g>
</g>
<g>
</g>
<g>
</g>
<g>
</g>
<g>
</g>
<g>
</g>
<g>
</g>
<g>
</g>
<g>
</g>
<g>
</g>
<g>
</g>
<g>
</g>
<g>
</g>
<g>
</g>
<g>
</g>
</svg>
