<?xml version="1.0" encoding="iso-8859-1"?>
<!-- Generator: Adobe Illustrator 19.0.0, SVG Export Plug-In . SVG Version: 6.00 Build 0)  -->
<svg version="1.1" id="Layer_1" xmlns="http://www.w3.org/2000/svg" xmlns:xlink="http://www.w3.org/1999/xlink" x="0px" y="0px"
	 viewBox="0 0 512 512" style="enable-background:new 0 0 512 512;" xml:space="preserve">
<rect x="72.205" y="183.795" style="fill:#FFEA8A;" width="367.59" height="39.385"/>
<rect x="256" y="183.795" style="fill:#FFDB2D;" width="183.795" height="39.385"/>
<circle style="fill:#7AB9E8;" cx="256" cy="256" r="144.41"/>
<path style="fill:#579ADF;" d="M256,111.59V400.41c79.755,0,144.41-64.655,144.41-144.41S335.755,111.59,256,111.59z"/>
<path style="fill:#FFEA8A;" d="M439.795,183.795v39.385c18.097,0,32.82,14.723,32.82,32.821s-14.723,32.821-32.82,32.821H72.205
	c-18.097,0-32.821-14.723-32.821-32.821s14.723-32.821,32.821-32.821h13.128v-39.385H72.205C32.391,183.795,0,216.186,0,256
	s32.391,72.205,72.205,72.205h367.59C479.609,328.205,512,295.814,512,256S479.609,183.795,439.795,183.795z"/>
<path style="fill:#FFDB2D;" d="M439.795,183.795h-13.128v39.385h13.128c18.097,0,32.82,14.723,32.82,32.821
	s-14.723,32.821-32.82,32.821H256v39.385h183.795C479.609,328.205,512,295.814,512,256S479.609,183.795,439.795,183.795z"/>
<g>
</g>
<g>
</g>
<g>
</g>
<g>
</g>
<g>
</g>
<g>
</g>
<g>
</g>
<g>
</g>
<g>
</g>
<g>
</g>
<g>
</g>
<g>
</g>
<g>
</g>
<g>
</g>
<g>
</g>
</svg>
