<?xml version="1.0" encoding="iso-8859-1"?>
<!-- Generator: Adobe Illustrator 19.0.0, SVG Export Plug-In . SVG Version: 6.00 Build 0)  -->
<svg version="1.1" id="Layer_1" xmlns="http://www.w3.org/2000/svg" xmlns:xlink="http://www.w3.org/1999/xlink" x="0px" y="0px"
	 viewBox="0 0 512 512" style="enable-background:new 0 0 512 512;" xml:space="preserve">
<g>
	<rect x="231.226" y="305.548" style="fill:#424144;" width="49.548" height="181.677"/>
	<rect x="305.548" y="231.226" style="fill:#424144;" width="181.677" height="49.548"/>
</g>
<rect x="24.774" y="231.226" style="fill:#56545A;" width="181.677" height="49.548"/>
<g>
	<circle style="fill:#88888F;" cx="256" cy="256" r="66.065"/>
	<path style="fill:#88888F;" d="M256,512C114.842,512,0,397.158,0,256S114.842,0,256,0s256,114.842,256,256S397.158,512,256,512z
		 M256,49.548C142.163,49.548,49.548,142.163,49.548,256S142.163,462.452,256,462.452S462.452,369.837,462.452,256
		S369.837,49.548,256,49.548z"/>
</g>
<g>
	<path style="fill:#56545A;" d="M256,0v49.548c113.837,0,206.452,92.614,206.452,206.452S369.837,462.452,256,462.452V512
		c141.158,0,256-114.842,256-256S397.158,0,256,0z"/>
	<path style="fill:#56545A;" d="M256,189.935v132.129c36.486,0,66.065-29.579,66.065-66.065S292.486,189.935,256,189.935z"/>
</g>
<g>
</g>
<g>
</g>
<g>
</g>
<g>
</g>
<g>
</g>
<g>
</g>
<g>
</g>
<g>
</g>
<g>
</g>
<g>
</g>
<g>
</g>
<g>
</g>
<g>
</g>
<g>
</g>
<g>
</g>
</svg>
