<?xml version="1.0" encoding="iso-8859-1"?>
<!-- Generator: Adobe Illustrator 19.0.0, SVG Export Plug-In . SVG Version: 6.00 Build 0)  -->
<svg version="1.1" id="Layer_1" xmlns="http://www.w3.org/2000/svg" xmlns:xlink="http://www.w3.org/1999/xlink" x="0px" y="0px"
	 viewBox="0 0 512 512" style="enable-background:new 0 0 512 512;" xml:space="preserve">
<path style="fill:#88888F;" d="M256,151.704c-57.509,0-104.296,46.787-104.296,104.296S198.491,360.296,256,360.296
	c29.867,0,56.821-12.639,75.852-32.825c19.031,20.186,45.985,32.825,75.852,32.825C465.213,360.296,512,313.509,512,256
	C512,114.842,397.158,0,256,0S0,114.842,0,256s114.842,256,256,256c68.38,0,132.667-26.628,181.019-74.98l-40.226-40.226
	C359.185,434.4,309.185,455.111,256,455.111C146.21,455.111,56.889,365.79,56.889,256S146.21,56.889,256,56.889
	S455.111,146.21,455.111,256c0,26.14-21.267,47.407-47.407,47.407c-26.14,0-47.407-21.267-47.407-47.406l0,0V256
	C360.296,198.491,313.509,151.704,256,151.704z M256,303.407c-26.14,0-47.407-21.267-47.407-47.407S229.86,208.593,256,208.593
	S303.407,229.86,303.407,256S282.14,303.407,256,303.407z"/>
<g>
	<path style="fill:#56545A;" d="M256,455.111V512c68.38,0,132.667-26.628,181.019-74.98l-40.226-40.226
		C359.185,434.4,309.185,455.111,256,455.111z"/>
	<path style="fill:#56545A;" d="M256,0v56.889c109.792,0,199.111,89.321,199.111,199.111c0,26.14-21.267,47.407-47.407,47.407
		c-26.14,0-47.407-21.267-47.407-47.406V256c0-57.509-46.787-104.296-104.296-104.296v56.889c26.14,0,47.407,21.267,47.407,47.407
		S282.14,303.407,256,303.407v56.889c29.867,0,56.821-12.639,75.852-32.825c19.031,20.186,45.985,32.825,75.852,32.825
		C465.213,360.296,512,313.509,512,256C512,114.842,397.158,0,256,0z"/>
</g>
<g>
</g>
<g>
</g>
<g>
</g>
<g>
</g>
<g>
</g>
<g>
</g>
<g>
</g>
<g>
</g>
<g>
</g>
<g>
</g>
<g>
</g>
<g>
</g>
<g>
</g>
<g>
</g>
<g>
</g>
</svg>
