<?xml version="1.0" encoding="iso-8859-1"?>
<!-- Generator: Adobe Illustrator 19.0.0, SVG Export Plug-In . SVG Version: 6.00 Build 0)  -->
<svg version="1.1" id="Layer_1" xmlns="http://www.w3.org/2000/svg" xmlns:xlink="http://www.w3.org/1999/xlink" x="0px" y="0px"
	 viewBox="0 0 512 512" style="enable-background:new 0 0 512 512;" xml:space="preserve">
<path style="fill:#B4D8F1;" d="M404.645,82.581V33.032h-297.29v49.548c0,81.421,68.516,150.33,118.18,173.419
	c-49.664,23.09-118.18,91.998-118.18,173.419v49.548h297.29v-49.548c0-81.421-68.516-150.33-118.18-173.419
	C336.13,232.91,404.645,164.002,404.645,82.581z"/>
<path style="fill:#98C8ED;" d="M404.645,82.581V33.032H256v445.935h148.645v-49.548c0-81.421-68.516-150.33-118.18-173.419
	C336.13,232.91,404.645,164.002,404.645,82.581z"/>
<g>
	<rect x="57.806" style="fill:#B29476;" width="396.387" height="49.548"/>
	<rect x="57.806" y="462.452" style="fill:#B29476;" width="396.387" height="49.548"/>
</g>
<g>
	<rect x="256" style="fill:#A58868;" width="198.194" height="49.548"/>
	<rect x="256" y="462.452" style="fill:#A58868;" width="198.194" height="49.548"/>
</g>
<g>
</g>
<g>
</g>
<g>
</g>
<g>
</g>
<g>
</g>
<g>
</g>
<g>
</g>
<g>
</g>
<g>
</g>
<g>
</g>
<g>
</g>
<g>
</g>
<g>
</g>
<g>
</g>
<g>
</g>
</svg>
