<?xml version="1.0" encoding="iso-8859-1"?>
<!-- Generator: Adobe Illustrator 19.0.0, SVG Export Plug-In . SVG Version: 6.00 Build 0)  -->
<svg version="1.1" id="Layer_1" xmlns="http://www.w3.org/2000/svg" xmlns:xlink="http://www.w3.org/1999/xlink" x="0px" y="0px"
	 viewBox="0 0 512 512" style="enable-background:new 0 0 512 512;" xml:space="preserve">
<g>
	<rect x="231.226" y="24.774" style="fill:#FF6643;" width="49.548" height="82.581"/>
	<rect x="231.226" y="404.645" style="fill:#FF6643;" width="49.548" height="82.581"/>
	<path style="fill:#FF6643;" d="M256,0C114.84,0,0,114.842,0,256s114.84,256,256,256s256-114.842,256-256S397.16,0,256,0z
		 M256,462.452c-105.454,0-192.682-79.479-204.96-181.677h56.315v-49.548H51.04C63.318,129.027,150.546,49.548,256,49.548
		s192.682,79.479,204.96,181.677h-56.315v49.548h56.315C448.682,382.973,361.454,462.452,256,462.452z"/>
</g>
<path style="fill:#FF4F19;" d="M256,0v49.548c105.454,0,192.682,79.479,204.96,181.677h-56.315v49.548h56.315
	C448.682,382.973,361.454,462.452,256,462.452V512c141.16,0,256-114.842,256-256S397.16,0,256,0z"/>
<g>
</g>
<g>
</g>
<g>
</g>
<g>
</g>
<g>
</g>
<g>
</g>
<g>
</g>
<g>
</g>
<g>
</g>
<g>
</g>
<g>
</g>
<g>
</g>
<g>
</g>
<g>
</g>
<g>
</g>
</svg>
