<?xml version="1.0" encoding="iso-8859-1"?>
<!-- Generator: Adobe Illustrator 19.0.0, SVG Export Plug-In . SVG Version: 6.00 Build 0)  -->
<svg version="1.1" id="Layer_1" xmlns="http://www.w3.org/2000/svg" xmlns:xlink="http://www.w3.org/1999/xlink" x="0px" y="0px"
	 viewBox="0 0 512 512" style="enable-background:new 0 0 512 512;" xml:space="preserve">
<path style="fill:#FFAF33;" d="M256,0C142.892,0,51.2,91.692,51.2,204.8C51.2,344.764,170.667,443.733,256,512
	c85.333-68.267,204.8-167.236,204.8-307.2C460.8,91.692,369.108,0,256,0z M256,256c-28.232,0-51.2-22.968-51.2-51.2
	s22.968-51.2,51.2-51.2s51.2,22.968,51.2,51.2S284.232,256,256,256z"/>
<path style="fill:#FF9408;" d="M256,0v153.6c28.232,0,51.2,22.968,51.2,51.2S284.232,256,256,256v256
	c85.333-68.267,204.8-167.236,204.8-307.2C460.8,91.692,369.108,0,256,0z"/>
<g>
</g>
<g>
</g>
<g>
</g>
<g>
</g>
<g>
</g>
<g>
</g>
<g>
</g>
<g>
</g>
<g>
</g>
<g>
</g>
<g>
</g>
<g>
</g>
<g>
</g>
<g>
</g>
<g>
</g>
</svg>
