<?xml version="1.0" encoding="iso-8859-1"?>
<!-- Generator: Adobe Illustrator 19.0.0, SVG Export Plug-In . SVG Version: 6.00 Build 0)  -->
<svg version="1.1" id="Layer_1" xmlns="http://www.w3.org/2000/svg" xmlns:xlink="http://www.w3.org/1999/xlink" x="0px" y="0px"
	 viewBox="0 0 512 512" style="enable-background:new 0 0 512 512;" xml:space="preserve">
<circle style="fill:#F2F2F4;" cx="256" cy="336.457" r="58.514"/>
<path style="fill:#DFDFE1;" d="M256,277.943v117.029c32.316,0,58.514-26.198,58.514-58.514S288.316,277.943,256,277.943z"/>
<g>
	<path style="fill:#FF6643;" d="M343.771,175.543H168.229v87.771H80.457v175.543h351.086V263.314h-87.771V175.543z M256,373.029
		c-24.199,0-43.886-19.687-43.886-43.886s19.687-43.886,43.886-43.886s43.886,19.687,43.886,43.886S280.199,373.029,256,373.029z"/>
	<path style="fill:#FF6643;" d="M387.657,73.143H124.343C55.78,73.143,0,128.923,0,197.486v21.943h117.029v-21.943
		c0-36.298,29.531-65.829,65.829-65.829h146.286c36.298,0,65.829,29.531,65.829,65.829v21.943H512v-21.943
		C512,128.923,456.22,73.143,387.657,73.143z"/>
</g>
<g>
	<path style="fill:#FF4F19;" d="M343.771,175.543H256v109.714c24.199,0,43.886,19.687,43.886,43.886S280.199,373.029,256,373.029
		v65.829h175.543V263.314h-87.771V175.543z"/>
	<path style="fill:#FF4F19;" d="M387.657,73.143H256v58.514h73.143c36.298,0,65.829,29.531,65.829,65.829v21.943H512v-21.943
		C512,128.923,456.22,73.143,387.657,73.143z"/>
</g>
<g>
</g>
<g>
</g>
<g>
</g>
<g>
</g>
<g>
</g>
<g>
</g>
<g>
</g>
<g>
</g>
<g>
</g>
<g>
</g>
<g>
</g>
<g>
</g>
<g>
</g>
<g>
</g>
<g>
</g>
</svg>
