<?xml version="1.0" encoding="iso-8859-1"?>
<!-- Generator: Adobe Illustrator 19.0.0, SVG Export Plug-In . SVG Version: 6.00 Build 0)  -->
<svg version="1.1" id="Layer_1" xmlns="http://www.w3.org/2000/svg" xmlns:xlink="http://www.w3.org/1999/xlink" x="0px" y="0px"
	 viewBox="0 0 512 512" style="enable-background:new 0 0 512 512;" xml:space="preserve">
<circle style="fill:#F2F2F4;" cx="256" cy="288" r="224"/>
<path style="fill:#DFDFE1;" d="M256,64v448c123.712,0,224-100.288,224-224S379.712,64,256,64z"/>
<path style="fill:#AEADB3;" d="M256,64c-17.645,0-32-14.355-32-32s14.355-32,32-32s32,14.355,32,32S273.645,64,256,64z"/>
<polygon style="fill:#FF4F19;" points="256,250.288 256,325.712 278.627,310.627 369.138,174.862 "/>
<polygon style="fill:#7AB9E8;" points="256,250.288 233.373,265.373 142.862,401.138 256,325.712 "/>
<path style="fill:#AEADB3;" d="M256,336c-26.467,0-48-21.533-48-48s21.533-48,48-48s48,21.533,48,48S282.467,336,256,336z
	 M255.998,287.97L256,288C256,287.979,255.998,287.97,255.998,287.97z"/>
<path style="fill:#88888F;" d="M256,240v96c26.467,0,48-21.533,48-48S282.467,240,256,240z"/>
<g>
</g>
<g>
</g>
<g>
</g>
<g>
</g>
<g>
</g>
<g>
</g>
<g>
</g>
<g>
</g>
<g>
</g>
<g>
</g>
<g>
</g>
<g>
</g>
<g>
</g>
<g>
</g>
<g>
</g>
</svg>
