<?xml version="1.0" encoding="iso-8859-1"?>
<!-- Generator: Adobe Illustrator 19.0.0, SVG Export Plug-In . SVG Version: 6.00 Build 0)  -->
<svg version="1.1" id="Layer_1" xmlns="http://www.w3.org/2000/svg" xmlns:xlink="http://www.w3.org/1999/xlink" x="0px" y="0px"
	 viewBox="0 0 512 512" style="enable-background:new 0 0 512 512;" xml:space="preserve">
<rect x="69.818" y="248.242" style="fill:#FF4F19;" width="372.364" height="263.758"/>
<rect x="256" y="248.242" style="fill:#AF2E08;" width="186.182" height="263.758"/>
<g>
	<rect x="23.273" y="170.667" style="fill:#FF6643;" width="465.455" height="93.091"/>
	<rect x="256" y="170.667" style="fill:#FF6643;" width="232.727" height="93.091"/>
</g>
<g>
	<path style="fill:#FFDB2D;" d="M318.061,170.667h-85.333V85.333C232.727,38.281,271.008,0,318.061,0s85.333,38.281,85.333,85.333
		S365.113,170.667,318.061,170.667z M279.273,124.121h38.788c21.388,0,38.788-17.4,38.788-38.788s-17.4-38.788-38.788-38.788
		c-21.388,0-38.788,17.4-38.788,38.788V124.121z"/>
	<rect x="69.818" y="364.606" style="fill:#FFDB2D;" width="372.364" height="46.545"/>
</g>
<rect x="256" y="364.606" style="fill:#FFAF33;" width="186.182" height="46.545"/>
<path style="fill:#FFEA8A;" d="M193.939,0c-47.053,0-85.333,38.281-85.333,85.333s38.281,85.333,85.333,85.333h38.788V512h46.545
	V85.333C279.273,38.281,240.992,0,193.939,0z M155.152,85.333c0-21.388,17.4-38.788,38.788-38.788s38.788,17.4,38.788,38.788v38.788
	h-38.788C172.552,124.121,155.152,106.721,155.152,85.333z"/>
<g>
</g>
<g>
</g>
<g>
</g>
<g>
</g>
<g>
</g>
<g>
</g>
<g>
</g>
<g>
</g>
<g>
</g>
<g>
</g>
<g>
</g>
<g>
</g>
<g>
</g>
<g>
</g>
<g>
</g>
</svg>
