<?xml version="1.0" encoding="iso-8859-1"?>
<!-- Generator: Adobe Illustrator 19.0.0, SVG Export Plug-In . SVG Version: 6.00 Build 0)  -->
<svg version="1.1" id="Layer_1" xmlns="http://www.w3.org/2000/svg" xmlns:xlink="http://www.w3.org/1999/xlink" x="0px" y="0px"
	 viewBox="0 0 512 512" style="enable-background:new 0 0 512 512;" xml:space="preserve">
<rect x="135.529" style="fill:#88888F;" width="240.941" height="512"/>
<rect x="256" style="fill:#56545A;" width="120.471" height="512"/>
<path style="fill:#FF6643;" d="M256,165.647c-24.91,0-45.176-20.266-45.176-45.176S231.09,75.294,256,75.294
	s45.176,20.266,45.176,45.176S280.91,165.647,256,165.647z M255.998,120.442l0.002,0.029
	C256,120.451,255.998,120.442,255.998,120.442z"/>
<path style="fill:#FFEA8A;" d="M256,301.176c-24.91,0-45.176-20.266-45.176-45.176S231.09,210.824,256,210.824
	S301.176,231.09,301.176,256S280.91,301.176,256,301.176z M255.998,255.971L256,256C256,255.98,255.998,255.971,255.998,255.971z"/>
<path style="fill:#6DC180;" d="M256,436.706c-24.91,0-45.176-20.266-45.176-45.176S231.09,346.353,256,346.353
	s45.176,20.266,45.176,45.176S280.91,436.706,256,436.706z M255.998,391.501l0.002,0.029
	C256,391.51,255.998,391.501,255.998,391.501z"/>
<path style="fill:#FF4F19;" d="M256,165.647c24.91,0,45.176-20.266,45.176-45.176S280.91,75.294,256,75.294V165.647z"/>
<path style="fill:#FFDB2D;" d="M256,210.824v90.353c24.91,0,45.176-20.266,45.176-45.176S280.91,210.824,256,210.824z"/>
<path style="fill:#5CA15D;" d="M256,346.353v90.353c24.91,0,45.176-20.266,45.176-45.176S280.91,346.353,256,346.353z"/>
<g>
</g>
<g>
</g>
<g>
</g>
<g>
</g>
<g>
</g>
<g>
</g>
<g>
</g>
<g>
</g>
<g>
</g>
<g>
</g>
<g>
</g>
<g>
</g>
<g>
</g>
<g>
</g>
<g>
</g>
</svg>
