<?xml version="1.0" encoding="iso-8859-1"?>
<!-- Generator: Adobe Illustrator 19.0.0, SVG Export Plug-In . SVG Version: 6.00 Build 0)  -->
<svg version="1.1" id="Layer_1" xmlns="http://www.w3.org/2000/svg" xmlns:xlink="http://www.w3.org/1999/xlink" x="0px" y="0px"
	 viewBox="0 0 512 512" style="enable-background:new 0 0 512 512;" xml:space="preserve">
<polygon style="fill:#88888F;" points="54.857,192 0,192 0,0 192,0 192,54.857 54.857,54.857 "/>
<g>
	<polygon style="fill:#56545A;" points="512,192 457.143,192 457.143,54.857 320,54.857 320,0 512,0 	"/>
	<polygon style="fill:#56545A;" points="512,512 320,512 320,457.143 457.143,457.143 457.143,320 512,320 	"/>
</g>
<g>
	<polygon style="fill:#88888F;" points="192,512 0,512 0,320 54.857,320 54.857,457.143 192,457.143 	"/>
	<polygon style="fill:#88888F;" points="384,228.571 283.429,228.571 283.429,128 228.571,128 228.571,228.571 128,228.571 
		128,283.429 228.571,283.429 228.571,384 283.429,384 283.429,283.429 384,283.429 	"/>
</g>
<rect x="283.429" y="228.571" style="fill:#56545A;" width="100.571" height="54.857"/>
<g>
</g>
<g>
</g>
<g>
</g>
<g>
</g>
<g>
</g>
<g>
</g>
<g>
</g>
<g>
</g>
<g>
</g>
<g>
</g>
<g>
</g>
<g>
</g>
<g>
</g>
<g>
</g>
<g>
</g>
</svg>
