<?xml version="1.0" encoding="iso-8859-1"?>
<!-- Generator: Adobe Illustrator 19.0.0, SVG Export Plug-In . SVG Version: 6.00 Build 0)  -->
<svg version="1.1" id="Layer_1" xmlns="http://www.w3.org/2000/svg" xmlns:xlink="http://www.w3.org/1999/xlink" x="0px" y="0px"
	 viewBox="0 0 512 512" style="enable-background:new 0 0 512 512;" xml:space="preserve">
<polygon style="fill:#88888F;" points="214.986,24.477 99.224,140.238 0,140.238 0,371.762 99.224,371.762 214.986,487.523 
	231.523,487.523 231.523,24.477 "/>
<polygon style="fill:#FF6643;" points="512,191.685 476.919,156.604 412.604,220.919 348.287,156.604 313.208,191.685 377.523,256 
	313.208,320.315 348.287,355.396 412.604,291.081 476.919,355.396 512,320.315 447.683,256 "/>
<polygon style="fill:#56545A;" points="214.986,24.477 99.224,140.238 99.224,371.762 214.986,487.523 231.523,487.523 
	231.523,24.477 "/>
<polygon style="fill:#FF4F19;" points="512,191.685 476.919,156.604 413.434,220.087 413.434,291.911 476.919,355.396 512,320.315 
	447.683,256 "/>
<g>
</g>
<g>
</g>
<g>
</g>
<g>
</g>
<g>
</g>
<g>
</g>
<g>
</g>
<g>
</g>
<g>
</g>
<g>
</g>
<g>
</g>
<g>
</g>
<g>
</g>
<g>
</g>
<g>
</g>
</svg>
