<?xml version="1.0" encoding="iso-8859-1"?>
<!-- Generator: Adobe Illustrator 19.0.0, SVG Export Plug-In . SVG Version: 6.00 Build 0)  -->
<svg version="1.1" id="Layer_1" xmlns="http://www.w3.org/2000/svg" xmlns:xlink="http://www.w3.org/1999/xlink" x="0px" y="0px"
	 viewBox="0 0 512 512" style="enable-background:new 0 0 512 512;" xml:space="preserve">
<path style="fill:#F2F2F4;" d="M457.143,512H54.857C24.56,512,0,487.44,0,457.143V0h402.286v73.143L457.143,512z"/>
<polygon style="fill:#DFDFE1;" points="256,0 256,512 457.143,512 402.286,73.143 402.286,0 "/>
<g>
	<path style="fill:#88888F;" d="M402.286,73.143H512v384C512,487.44,487.44,512,457.143,512l0,0
		c-30.298,0-54.857-24.56-54.857-54.857V73.143z"/>
	<rect x="82.286" y="82.286" style="fill:#88888F;" width="237.714" height="109.714"/>
	<rect x="82.286" y="228.571" style="fill:#88888F;" width="237.714" height="54.857"/>
	<rect x="82.286" y="320" style="fill:#88888F;" width="237.714" height="54.857"/>
</g>
<g>
	<rect x="256" y="82.286" style="fill:#56545A;" width="64" height="109.714"/>
	<rect x="256" y="228.571" style="fill:#56545A;" width="64" height="54.857"/>
	<rect x="256" y="320" style="fill:#56545A;" width="64" height="54.857"/>
</g>
<g>
</g>
<g>
</g>
<g>
</g>
<g>
</g>
<g>
</g>
<g>
</g>
<g>
</g>
<g>
</g>
<g>
</g>
<g>
</g>
<g>
</g>
<g>
</g>
<g>
</g>
<g>
</g>
<g>
</g>
</svg>
