<?xml version="1.0" encoding="iso-8859-1"?>
<!-- Generator: Adobe Illustrator 19.0.0, SVG Export Plug-In . SVG Version: 6.00 Build 0)  -->
<svg version="1.1" id="Layer_1" xmlns="http://www.w3.org/2000/svg" xmlns:xlink="http://www.w3.org/1999/xlink" x="0px" y="0px"
	 viewBox="0 0 512 512" style="enable-background:new 0 0 512 512;" xml:space="preserve">
<g>
	<rect x="287.22" y="237.268" style="fill:#CFCDD2;" width="37.463" height="106.146"/>
	<rect x="187.317" y="237.268" style="fill:#CFCDD2;" width="37.463" height="106.146"/>
</g>
<g>
	<rect x="237.268" y="430.829" style="fill:#AEADB3;" width="37.463" height="81.171"/>
	<rect x="237.268" style="fill:#AEADB3;" width="37.463" height="81.171"/>
</g>
<g>
	<path style="fill:#88888F;" d="M256,68.683c-48.278,0-87.415,39.137-87.415,87.415v24.976h174.829v-24.976
		C343.415,107.82,304.278,68.683,256,68.683z"/>
	<path style="fill:#88888F;" d="M168.585,330.927v24.976c0,48.278,39.137,87.415,87.415,87.415s87.415-39.137,87.415-87.415v-24.976
		H168.585z"/>
</g>
<g>
	<path style="fill:#56545A;" d="M256,68.683v112.39h87.415v-24.976C343.415,107.82,304.278,68.683,256,68.683z"/>
	<path style="fill:#56545A;" d="M256,330.927v112.39c48.278,0,87.415-39.137,87.415-87.415v-24.976H256z"/>
</g>
<g>
</g>
<g>
</g>
<g>
</g>
<g>
</g>
<g>
</g>
<g>
</g>
<g>
</g>
<g>
</g>
<g>
</g>
<g>
</g>
<g>
</g>
<g>
</g>
<g>
</g>
<g>
</g>
<g>
</g>
</svg>
