<?xml version="1.0" encoding="iso-8859-1"?>
<!-- Generator: Adobe Illustrator 19.0.0, SVG Export Plug-In . SVG Version: 6.00 Build 0)  -->
<svg version="1.1" id="Layer_1" xmlns="http://www.w3.org/2000/svg" xmlns:xlink="http://www.w3.org/1999/xlink" x="0px" y="0px"
	 viewBox="0 0 512 512" style="enable-background:new 0 0 512 512;" xml:space="preserve">
<path style="fill:#F2F2F4;" d="M388.278,173.695C374.773,113.08,320.682,67.765,256,67.765s-118.773,45.315-132.278,105.93
	C54.402,179.679,0,237.835,0,308.706c0,74.851,60.678,135.529,135.529,135.529h240.941c74.851,0,135.529-60.678,135.529-135.529
	C512,237.835,457.598,179.679,388.278,173.695z"/>
<path style="fill:#DFDFE1;" d="M388.278,173.695C374.773,113.08,320.682,67.765,256,67.765v376.471h120.471
	c74.851,0,135.529-60.678,135.529-135.529C512,237.835,457.598,179.679,388.278,173.695z"/>
<g>
</g>
<g>
</g>
<g>
</g>
<g>
</g>
<g>
</g>
<g>
</g>
<g>
</g>
<g>
</g>
<g>
</g>
<g>
</g>
<g>
</g>
<g>
</g>
<g>
</g>
<g>
</g>
<g>
</g>
</svg>
