<?xml version="1.0" encoding="iso-8859-1"?>
<!-- Generator: Adobe Illustrator 19.0.0, SVG Export Plug-In . SVG Version: 6.00 Build 0)  -->
<svg version="1.1" id="Layer_1" xmlns="http://www.w3.org/2000/svg" xmlns:xlink="http://www.w3.org/1999/xlink" x="0px" y="0px"
	 viewBox="0 0 512 512" style="enable-background:new 0 0 512 512;" xml:space="preserve">
<g>
	<path style="fill:#7AB9E8;" d="M179.601,384.078c29.539-14.274,49.916-44.519,49.916-79.526c0-48.753-39.523-88.276-88.276-88.276
		s-88.276,39.523-88.276,88.276c0,35.007,20.378,65.252,49.916,79.526C45.792,385.695,0,432.449,0,489.931v17.655h282.483v-17.655
		C282.483,432.449,236.692,385.695,179.601,384.078z"/>
	<path style="fill:#7AB9E8;" d="M409.118,172.216c29.539-14.274,49.916-44.519,49.916-79.526c0-48.753-39.523-88.276-88.276-88.276
		s-88.276,39.523-88.276,88.276c0,35.007,20.378,65.252,49.916,79.526c-57.092,1.617-102.882,48.372-102.882,105.853v17.655H512
		v-17.655C512,220.587,466.21,173.833,409.118,172.216z"/>
</g>
<g>
	<path style="fill:#579ADF;" d="M409.118,172.216c29.539-14.274,49.916-44.519,49.916-79.526c0-48.753-39.523-88.276-88.276-88.276
		v291.31H512v-17.655C512,220.587,466.21,173.833,409.118,172.216z"/>
	<path style="fill:#579ADF;" d="M179.601,384.078c29.539-14.274,49.916-44.519,49.916-79.526c0-48.753-39.523-88.276-88.276-88.276
		v291.31h141.241v-17.655C282.483,432.449,236.692,385.695,179.601,384.078z"/>
</g>
<g>
</g>
<g>
</g>
<g>
</g>
<g>
</g>
<g>
</g>
<g>
</g>
<g>
</g>
<g>
</g>
<g>
</g>
<g>
</g>
<g>
</g>
<g>
</g>
<g>
</g>
<g>
</g>
<g>
</g>
</svg>
