<?xml version="1.0" encoding="iso-8859-1"?>
<!-- Generator: Adobe Illustrator 19.0.0, SVG Export Plug-In . SVG Version: 6.00 Build 0)  -->
<svg version="1.1" id="Layer_1" xmlns="http://www.w3.org/2000/svg" xmlns:xlink="http://www.w3.org/1999/xlink" x="0px" y="0px"
	 viewBox="0 0 512 512" style="enable-background:new 0 0 512 512;" xml:space="preserve">
<path style="fill:#DFDFE1;" d="M133.908,98.462v315.077c0,34.802,84.639,63.015,189.046,63.015S511.998,448.342,512,413.538l0,0
	V98.462H133.908z"/>
<path style="fill:#CFCDD2;" d="M322.954,98.462v378.092c104.407,0,189.045-28.212,189.046-63.015l0,0V98.462H322.954z"/>
<ellipse style="fill:#7AB9E8;" cx="322.954" cy="98.462" rx="189.046" ry="63.015"/>
<path style="fill:#579ADF;" d="M322.954,35.446v126.031C427.361,161.477,512,133.263,512,98.462S427.361,35.446,322.954,35.446z"/>
<path style="fill:#CFCDD2;" d="M317.445,299.963c-30.49,7.311-66.718,11.176-104.768,11.176c-44.922,0-87.667-5.465-120.364-15.388
	c-30.024-9.11-41.377-18.979-44.314-23.035c6.993-7.56,35.714-21.803,85.909-31.552v-48.06c-30.98,5.47-59.353,13.315-80.885,22.437
	C17.84,230.447,0,249.36,0,271.754C0,331.286,110.245,358.4,212.677,358.4c41.707,0,81.745-4.315,115.789-12.479L317.445,299.963z"
	/>
<path style="fill:#F2F2F4;" d="M322.954,354.462c-17.373,0-31.508-14.134-31.508-31.508c0-17.373,14.134-31.508,31.508-31.508
	c17.373,0,31.508,14.134,31.508,31.508C354.462,340.327,340.327,354.462,322.954,354.462z"/>
<g>
</g>
<g>
</g>
<g>
</g>
<g>
</g>
<g>
</g>
<g>
</g>
<g>
</g>
<g>
</g>
<g>
</g>
<g>
</g>
<g>
</g>
<g>
</g>
<g>
</g>
<g>
</g>
<g>
</g>
</svg>
