<?xml version="1.0" encoding="iso-8859-1"?>
<!-- Generator: Adobe Illustrator 19.0.0, SVG Export Plug-In . SVG Version: 6.00 Build 0)  -->
<svg version="1.1" id="Layer_1" xmlns="http://www.w3.org/2000/svg" xmlns:xlink="http://www.w3.org/1999/xlink" x="0px" y="0px"
	 viewBox="0 0 512 512" style="enable-background:new 0 0 512 512;" xml:space="preserve">
<rect x="88.131" y="461.639" style="fill:#DFDFE1;" width="419.672" height="50.361"/>
<rect x="214.033" style="fill:#F2F2F4;" width="50.361" height="100.721"/>
<g>
	<rect x="331.541" style="fill:#DFDFE1;" width="50.361" height="100.721"/>
	<path style="fill:#DFDFE1;" d="M143.189,344.131c32.948,50.529,89.959,83.934,154.778,83.934
		c101.982,0,184.656-82.674,184.656-184.656v-83.934H96.525c-50.91,0-92.328,41.418-92.328,92.328s41.418,92.328,92.328,92.328
		H143.189z M54.557,251.803c0-23.141,18.826-41.967,41.967-41.967h16.787v33.574c0,17.46,2.426,34.351,6.953,50.361h-23.74
		C73.384,293.77,54.557,274.944,54.557,251.803z"/>
</g>
<g>
	<path style="fill:#CFCDD2;" d="M482.623,243.41v-83.934H297.967v268.59C399.949,428.066,482.623,345.392,482.623,243.41z"/>
	<rect x="297.967" y="461.639" style="fill:#CFCDD2;" width="209.836" height="50.361"/>
</g>
<g>
</g>
<g>
</g>
<g>
</g>
<g>
</g>
<g>
</g>
<g>
</g>
<g>
</g>
<g>
</g>
<g>
</g>
<g>
</g>
<g>
</g>
<g>
</g>
<g>
</g>
<g>
</g>
<g>
</g>
</svg>
