<?xml version="1.0" encoding="iso-8859-1"?>
<!-- Generator: Adobe Illustrator 19.0.0, SVG Export Plug-In . SVG Version: 6.00 Build 0)  -->
<svg version="1.1" id="Layer_1" xmlns="http://www.w3.org/2000/svg" xmlns:xlink="http://www.w3.org/1999/xlink" x="0px" y="0px"
	 viewBox="0 0 512.002 512.002" style="enable-background:new 0 0 512.002 512.002;" xml:space="preserve">
<g>
	<path style="fill:#DFDFE1;" d="M335.26,380.083l-35.452-35.452c48.87-48.872,48.87-128.391,0-177.261l35.452-35.452
		C403.681,200.339,403.681,311.665,335.26,380.083z"/>
	<path style="fill:#DFDFE1;" d="M423.892,468.714l-35.452-35.452c47.348-47.348,73.424-110.3,73.424-177.261
		S435.788,126.087,388.44,78.739l35.452-35.452c56.819,56.817,88.109,132.36,88.109,212.713S480.711,411.897,423.892,468.714z"/>
</g>
<polygon style="fill:#88888F;" points="217.261,22.028 100.274,139.014 0,139.014 0,372.987 100.274,372.987 217.261,489.974 
	233.973,489.974 233.973,22.028 "/>
<polygon style="fill:#56545A;" points="217.261,22.028 100.274,139.014 100.274,372.987 217.261,489.974 233.973,489.974 
	233.973,22.028 "/>
<g>
</g>
<g>
</g>
<g>
</g>
<g>
</g>
<g>
</g>
<g>
</g>
<g>
</g>
<g>
</g>
<g>
</g>
<g>
</g>
<g>
</g>
<g>
</g>
<g>
</g>
<g>
</g>
<g>
</g>
</svg>
