<?xml version="1.0" encoding="iso-8859-1"?>
<!-- Generator: Adobe Illustrator 19.0.0, SVG Export Plug-In . SVG Version: 6.00 Build 0)  -->
<svg version="1.1" id="Layer_1" xmlns="http://www.w3.org/2000/svg" xmlns:xlink="http://www.w3.org/1999/xlink" x="0px" y="0px"
	 viewBox="0 0 512 512" style="enable-background:new 0 0 512 512;" xml:space="preserve">
<path style="fill:#B29476;" d="M301.632,276.801L301.632,276.801L235.2,210.37L13.759,431.81c-18.345,18.345-18.345,48.088,0,66.432
	l0,0c18.345,18.345,48.088,18.345,66.432,0L301.632,276.801z"/>
<path style="fill:#A58868;" d="M301.632,276.801l-33.216-33.216L13.759,498.241c18.345,18.345,48.088,18.345,66.432,0
	L301.632,276.801L301.632,276.801z"/>
<polygon style="fill:#DFDFE1;" points="423.423,155.008 456.64,121.793 390.207,55.36 356.992,88.577 268.415,0 135.552,132.865 
	379.135,376.448 512,243.585 "/>
<polygon style="fill:#CFCDD2;" points="423.423,155.008 456.64,121.793 423.423,88.577 257.343,254.657 379.135,376.448 
	512,243.584 "/>
<rect x="359.851" y="81.685" transform="matrix(-0.7071 -0.7071 0.7071 -0.7071 620.1256 467.2092)" style="fill:#88888F;" width="93.948" height="46.974"/>
<rect x="399.933" y="98.308" transform="matrix(-0.7071 -0.7071 0.7071 -0.7071 636.7017 507.321)" style="fill:#56545A;" width="46.974" height="46.974"/>
<g>
</g>
<g>
</g>
<g>
</g>
<g>
</g>
<g>
</g>
<g>
</g>
<g>
</g>
<g>
</g>
<g>
</g>
<g>
</g>
<g>
</g>
<g>
</g>
<g>
</g>
<g>
</g>
<g>
</g>
</svg>
