<?xml version="1.0" encoding="iso-8859-1"?>
<!-- Generator: Adobe Illustrator 19.0.0, SVG Export Plug-In . SVG Version: 6.00 Build 0)  -->
<svg version="1.1" id="Layer_1" xmlns="http://www.w3.org/2000/svg" xmlns:xlink="http://www.w3.org/1999/xlink" x="0px" y="0px"
	 viewBox="0 0 512 512" style="enable-background:new 0 0 512 512;" xml:space="preserve">
<path style="fill:#DFDFE1;" d="M256,512c-80.117,0-145.297-65.18-145.297-145.297V103.784C110.703,46.557,157.26,0,214.486,0
	S318.27,46.557,318.27,103.784v262.919c0,34.336-27.934,62.27-62.27,62.27s-62.27-27.934-62.27-62.27V103.784h41.514v262.919
	c0,11.445,9.311,20.757,20.757,20.757c11.445,0,20.757-9.311,20.757-20.757V103.784c0-34.336-27.934-62.27-62.27-62.27
	s-62.27,27.934-62.27,62.27v262.919c0,57.226,46.557,103.784,103.784,103.784s103.784-46.557,103.784-103.784V103.784h41.514
	v262.919C401.297,446.82,336.117,512,256,512z"/>
<g>
	<path style="fill:#CFCDD2;" d="M256,57.42c12.729,11.409,20.757,27.964,20.757,46.364v262.919c0,11.445-9.311,20.757-20.757,20.757
		v41.514c34.336,0,62.27-27.934,62.27-62.27V103.784c0-42.47-25.654-79.044-62.27-95.092V57.42z"/>
	<path style="fill:#CFCDD2;" d="M359.784,103.784v262.919c0,57.226-46.557,103.784-103.784,103.784V512
		c80.117,0,145.297-65.18,145.297-145.297V103.784H359.784z"/>
</g>
<g>
</g>
<g>
</g>
<g>
</g>
<g>
</g>
<g>
</g>
<g>
</g>
<g>
</g>
<g>
</g>
<g>
</g>
<g>
</g>
<g>
</g>
<g>
</g>
<g>
</g>
<g>
</g>
<g>
</g>
</svg>
