<?xml version="1.0" encoding="iso-8859-1"?>
<!-- Generator: Adobe Illustrator 19.0.0, SVG Export Plug-In . SVG Version: 6.00 Build 0)  -->
<svg version="1.1" id="Layer_1" xmlns="http://www.w3.org/2000/svg" xmlns:xlink="http://www.w3.org/1999/xlink" x="0px" y="0px"
	 viewBox="0 0 512 512" style="enable-background:new 0 0 512 512;" xml:space="preserve">
<rect x="51.2" style="fill:#88888F;" width="409.6" height="512"/>
<rect x="256" style="fill:#56545A;" width="204.8" height="512"/>
<path style="fill:#F2F2F4;" d="M256,366.933c-79.99,0-145.067-65.077-145.067-145.067S176.01,76.8,256,76.8
	s145.067,65.077,145.067,145.067S335.99,366.933,256,366.933z"/>
<path style="fill:#DFDFE1;" d="M256,76.8v290.133c79.99,0,145.067-65.077,145.067-145.067S335.99,76.8,256,76.8z"/>
<path style="fill:#88888F;" d="M256,256c-18.821,0-34.133-15.312-34.133-34.133s15.312-34.133,34.133-34.133
	s34.133,15.312,34.133,34.133S274.821,256,256,256z"/>
<rect x="145.067" y="307.2" style="fill:#CFCDD2;" width="51.2" height="110.933"/>
<g>
</g>
<g>
</g>
<g>
</g>
<g>
</g>
<g>
</g>
<g>
</g>
<g>
</g>
<g>
</g>
<g>
</g>
<g>
</g>
<g>
</g>
<g>
</g>
<g>
</g>
<g>
</g>
<g>
</g>
</svg>
