<?xml version="1.0" encoding="iso-8859-1"?>
<!-- Generator: Adobe Illustrator 19.0.0, SVG Export Plug-In . SVG Version: 6.00 Build 0)  -->
<svg version="1.1" id="Layer_1" xmlns="http://www.w3.org/2000/svg" xmlns:xlink="http://www.w3.org/1999/xlink" x="0px" y="0px"
	 viewBox="0 0 512 512" style="enable-background:new 0 0 512 512;" xml:space="preserve">
<circle style="fill:#F2F2F4;" cx="256" cy="99.556" r="99.556"/>
<path style="fill:#DFDFE1;" d="M256,0v199.111c54.983,0,99.556-44.572,99.556-99.556S310.983,0,256,0z"/>
<rect x="234.667" y="440.889" style="fill:#88888F;" width="42.667" height="71.111"/>
<path style="fill:#56545A;" d="M199.111,170.667v227.556c0,31.418,25.471,56.889,56.889,56.889s56.889-25.471,56.889-56.889V170.667
	H199.111z"/>
<path style="fill:#424144;" d="M256,170.667v284.444c31.418,0,56.889-25.471,56.889-56.889V170.667H256z"/>
<g>
	<path style="fill:#88888F;" d="M169.796,149.333c17.216,29.749,49.361,49.778,86.204,49.778s68.988-20.029,86.204-49.778H169.796z"
		/>
	<path style="fill:#88888F;" d="M355.275,106.667c0.166-2.351,0.28-4.718,0.28-7.111C355.556,44.572,310.983,0,256,0
		s-99.556,44.572-99.556,99.556c0,2.394,0.115,4.76,0.28,7.111H355.275z"/>
</g>
<g>
	<path style="fill:#56545A;" d="M256,199.111c36.843,0,68.988-20.029,86.204-49.778H256V199.111z"/>
	<path style="fill:#56545A;" d="M256,0v106.667h99.275c0.166-2.351,0.28-4.718,0.28-7.111C355.556,44.572,310.983,0,256,0z"/>
</g>
<g>
</g>
<g>
</g>
<g>
</g>
<g>
</g>
<g>
</g>
<g>
</g>
<g>
</g>
<g>
</g>
<g>
</g>
<g>
</g>
<g>
</g>
<g>
</g>
<g>
</g>
<g>
</g>
<g>
</g>
</svg>
