<?xml version="1.0" encoding="iso-8859-1"?>
<!-- Generator: Adobe Illustrator 19.0.0, SVG Export Plug-In . SVG Version: 6.00 Build 0)  -->
<svg version="1.1" id="Layer_1" xmlns="http://www.w3.org/2000/svg" xmlns:xlink="http://www.w3.org/1999/xlink" x="0px" y="0px"
	 viewBox="0 0 512 512" style="enable-background:new 0 0 512 512;" xml:space="preserve">
<path style="fill:#88888F;" d="M159.194,339.027V172.973c0-34.336,27.934-62.27,62.27-62.27h20.757V0h-20.757
	c-64.857,0-117.622,52.765-117.622,117.622v276.757c0,64.857,52.765,117.622,117.622,117.622h20.757V401.297h-20.757
	C187.128,401.297,159.194,373.363,159.194,339.027z"/>
<g>
	<path style="fill:#56545A;" d="M232.581,182.614c40.465,40.466,40.465,106.308,0,146.772l29.354,29.354
		c56.651-56.651,56.651-148.83,0-205.481L232.581,182.614z"/>
	<path style="fill:#56545A;" d="M335.32,79.873l-29.354,29.354c39.204,39.204,60.795,91.328,60.795,146.772
		s-21.591,107.568-60.795,146.772l29.354,29.354C432.437,335.01,432.437,176.99,335.32,79.873z"/>
	<path style="fill:#56545A;" d="M179.95,385.391v119.021c12.918,4.89,26.904,7.589,41.514,7.589h20.757V401.297h-20.757
		C205.528,401.297,190.976,395.274,179.95,385.391z"/>
	<path style="fill:#56545A;" d="M221.464,0c-14.61,0-28.596,2.698-41.514,7.589v119.021c11.026-9.883,25.576-15.907,41.514-15.907
		h20.757V0H221.464z"/>
</g>
<g>
</g>
<g>
</g>
<g>
</g>
<g>
</g>
<g>
</g>
<g>
</g>
<g>
</g>
<g>
</g>
<g>
</g>
<g>
</g>
<g>
</g>
<g>
</g>
<g>
</g>
<g>
</g>
<g>
</g>
</svg>
