<?xml version="1.0" encoding="iso-8859-1"?>
<!-- Generator: Adobe Illustrator 19.0.0, SVG Export Plug-In . SVG Version: 6.00 Build 0)  -->
<svg version="1.1" id="Layer_1" xmlns="http://www.w3.org/2000/svg" xmlns:xlink="http://www.w3.org/1999/xlink" x="0px" y="0px"
	 viewBox="0 0 512.001 512.001" style="enable-background:new 0 0 512.001 512.001;" xml:space="preserve">
<path style="fill:#88888F;" d="M471.88,113.676c0,40.558-32.997,73.555-73.555,73.555s-73.555-32.997-73.555-73.555
	s32.997-73.555,73.555-73.555V0c-62.681,0-113.676,50.995-113.676,113.676c0,16.249,3.452,31.7,9.621,45.694l-134.9,134.9
	c-13.994-6.169-29.445-9.621-45.694-9.621C50.995,284.649,0,335.644,0,398.325h40.121c0-40.558,32.997-73.555,73.555-73.555
	s73.555,32.997,73.555,73.555s-32.997,73.555-73.555,73.555v40.121c62.681,0,113.676-50.995,113.676-113.676
	c0-16.249-3.452-31.7-9.621-45.694l134.899-134.9c13.994,6.169,29.445,9.621,45.694,9.621c62.681,0,113.676-50.995,113.676-113.676
	L471.88,113.676L471.88,113.676z"/>
<path style="fill:#56545A;" d="M217.733,352.631l134.899-134.9c13.994,6.169,29.445,9.621,45.694,9.621
	c62.681,0,113.676-50.995,113.676-113.676H471.88c0,40.558-32.997,73.555-73.555,73.555c-20.28,0-38.669-8.249-51.987-21.568
	L165.665,346.338c13.319,13.319,21.568,31.708,21.568,51.987c0,40.558-32.997,73.555-73.555,73.555v40.121
	c62.681,0,113.676-50.995,113.676-113.676C227.354,382.075,223.902,366.624,217.733,352.631z"/>
<g>
</g>
<g>
</g>
<g>
</g>
<g>
</g>
<g>
</g>
<g>
</g>
<g>
</g>
<g>
</g>
<g>
</g>
<g>
</g>
<g>
</g>
<g>
</g>
<g>
</g>
<g>
</g>
<g>
</g>
</svg>
