<?xml version="1.0" encoding="iso-8859-1"?>
<!-- Generator: Adobe Illustrator 19.0.0, SVG Export Plug-In . SVG Version: 6.00 Build 0)  -->
<svg version="1.1" id="Layer_1" xmlns="http://www.w3.org/2000/svg" xmlns:xlink="http://www.w3.org/1999/xlink" x="0px" y="0px"
	 viewBox="0 0 512 512" style="enable-background:new 0 0 512 512;" xml:space="preserve">
<polygon style="fill:#88888F;" points="409.209,479.696 272.153,342.64 256,358.791 239.849,342.64 102.793,479.696 135.097,512 
	256,391.095 376.905,512 "/>
<polygon style="fill:#56545A;" points="256,358.791 256,391.095 376.905,512 409.209,479.696 272.153,342.64 "/>
<rect x="58.036" y="68.528" style="fill:#F2F2F4;" width="395.939" height="304.569"/>
<rect x="256.006" y="68.528" style="fill:#DFDFE1;" width="197.97" height="304.569"/>
<polygon style="fill:#88888F;" points="301.685,45.685 301.685,0 210.315,0 210.315,45.685 12.345,45.685 12.345,91.371 
	499.655,91.371 499.655,45.685 "/>
<polygon style="fill:#56545A;" points="301.685,45.685 301.685,0 256,0 256,91.371 499.655,91.371 499.655,45.685 "/>
<g>
</g>
<g>
</g>
<g>
</g>
<g>
</g>
<g>
</g>
<g>
</g>
<g>
</g>
<g>
</g>
<g>
</g>
<g>
</g>
<g>
</g>
<g>
</g>
<g>
</g>
<g>
</g>
<g>
</g>
</svg>
