<?xml version="1.0" encoding="iso-8859-1"?>
<!-- Generator: Adobe Illustrator 19.0.0, SVG Export Plug-In . SVG Version: 6.00 Build 0)  -->
<svg version="1.1" id="Layer_1" xmlns="http://www.w3.org/2000/svg" xmlns:xlink="http://www.w3.org/1999/xlink" x="0px" y="0px"
	 viewBox="0 0 512 512" style="enable-background:new 0 0 512 512;" xml:space="preserve">
<path style="fill:#FFDB2D;" d="M185.108,409.6v31.508c0,39.09,31.801,70.892,70.892,70.892s70.892-31.802,70.892-70.892V409.6
	H185.108z"/>
<path style="fill:#FFAF33;" d="M256,409.6V512c39.092,0,70.892-31.802,70.892-70.892V409.6H256z"/>
<path style="fill:#FFEA8A;" d="M445.046,393.846V244.185c0-97.794-74.256-178.241-169.459-188.041
	c7.253-5.777,11.921-14.665,11.921-24.636C287.508,14.134,273.373,0,256,0s-31.508,14.134-31.508,31.508
	c0,9.971,4.669,18.859,11.921,24.636c-95.204,9.8-169.459,90.247-169.459,188.041v149.662H19.692v47.262h472.615v-47.262H445.046z"
	/>
<path style="fill:#FFDB2D;" d="M445.046,393.846V244.185c0-97.794-74.256-178.241-169.459-188.041
	c7.253-5.777,11.921-14.665,11.921-24.636C287.508,14.134,273.373,0,256,0v441.108h236.308v-47.262H445.046z"/>
<g>
</g>
<g>
</g>
<g>
</g>
<g>
</g>
<g>
</g>
<g>
</g>
<g>
</g>
<g>
</g>
<g>
</g>
<g>
</g>
<g>
</g>
<g>
</g>
<g>
</g>
<g>
</g>
<g>
</g>
</svg>
