<?xml version="1.0" encoding="iso-8859-1"?>
<!-- Generator: Adobe Illustrator 19.0.0, SVG Export Plug-In . SVG Version: 6.00 Build 0)  -->
<svg version="1.1" id="Layer_1" xmlns="http://www.w3.org/2000/svg" xmlns:xlink="http://www.w3.org/1999/xlink" x="0px" y="0px"
	 viewBox="0 0 512 512" style="enable-background:new 0 0 512 512;" xml:space="preserve">
<path style="fill:#88888F;" d="M247.065,193.921L14.707,426.279c-19.609,19.611-19.609,51.403,0,71.014l0,0
	c19.609,19.611,51.403,19.611,71.014,0l232.358-232.359c17.028,7.507,35.828,11.707,55.6,11.707
	c76.27,0,138.321-62.051,138.321-138.321h-48.819c0,51.625-43.932,93.179-96.374,89.243c-43.758-3.286-79.085-38.613-82.371-82.371
	c-3.936-52.44,37.62-96.372,89.243-96.372V0c-76.27,0-138.321,62.051-138.321,138.321
	C235.358,158.092,239.558,176.893,247.065,193.921z"/>
<path style="fill:#56545A;" d="M512,138.321h-48.819c0,51.625-43.932,93.179-96.374,89.243
	c-21.879-1.642-41.651-11.295-56.363-26.008L14.707,497.292c19.609,19.611,51.403,19.611,71.014,0l232.358-232.359
	c17.028,7.507,35.828,11.707,55.6,11.707C449.949,276.642,512,214.591,512,138.321z"/>
<g>
</g>
<g>
</g>
<g>
</g>
<g>
</g>
<g>
</g>
<g>
</g>
<g>
</g>
<g>
</g>
<g>
</g>
<g>
</g>
<g>
</g>
<g>
</g>
<g>
</g>
<g>
</g>
<g>
</g>
</svg>
