<?xml version="1.0" encoding="iso-8859-1"?>
<!-- Generator: Adobe Illustrator 19.0.0, SVG Export Plug-In . SVG Version: 6.00 Build 0)  -->
<svg version="1.1" id="Layer_1" xmlns="http://www.w3.org/2000/svg" xmlns:xlink="http://www.w3.org/1999/xlink" x="0px" y="0px"
	 viewBox="0 0 512 512" style="enable-background:new 0 0 512 512;" xml:space="preserve">
<circle style="fill:#FFAF33;" cx="256" cy="256" r="256"/>
<path style="fill:#FF9408;" d="M256,0v512c141.385,0,256-114.615,256-256S397.385,0,256,0z"/>
<path style="fill:#56545A;" d="M438.844,435.151c6.422-6.554,12.504-13.444,18.198-20.656
	C415.826,371.697,393.143,315.5,393.143,256c0-59.498,22.685-115.697,63.898-158.495c-5.692-7.212-11.774-14.102-18.198-20.656
	l-7.578-7.424c-4.089-3.842-8.294-7.559-12.628-11.129C366.821,111.51,338.286,181.681,338.286,256
	c0,74.32,28.535,144.49,80.353,197.703c4.334-3.569,8.539-7.287,12.628-11.129L438.844,435.151z"/>
<g>
	<path style="fill:#88888F;" d="M283.429,1.465C274.416,0.505,265.267,0,256,0s-18.416,0.505-27.429,1.465v509.069
		c9.013,0.96,18.161,1.465,27.429,1.465s18.416-0.505,27.429-1.465V1.465z"/>
	<path style="fill:#88888F;" d="M73.43,76.568c-6.526,6.64-12.701,13.627-18.478,20.944C96.163,140.31,118.844,196.504,118.844,256
		S96.163,371.692,54.952,414.488c5.776,7.318,11.952,14.303,18.478,20.944l7.053,6.91c4.164,3.924,8.452,7.717,12.871,11.357
		c51.816-53.213,80.347-123.383,80.347-197.7S145.168,111.515,93.354,58.302c-4.42,3.641-8.708,7.433-12.871,11.357L73.43,76.568z"
		/>
</g>
<g>
</g>
<g>
</g>
<g>
</g>
<g>
</g>
<g>
</g>
<g>
</g>
<g>
</g>
<g>
</g>
<g>
</g>
<g>
</g>
<g>
</g>
<g>
</g>
<g>
</g>
<g>
</g>
<g>
</g>
</svg>
