<?xml version="1.0" encoding="iso-8859-1"?>
<!-- Generator: Adobe Illustrator 19.0.0, SVG Export Plug-In . SVG Version: 6.00 Build 0)  -->
<svg version="1.1" id="Layer_1" xmlns="http://www.w3.org/2000/svg" xmlns:xlink="http://www.w3.org/1999/xlink" x="0px" y="0px"
	 viewBox="0 0 512.001 512.001" style="enable-background:new 0 0 512.001 512.001;" xml:space="preserve">
<path style="fill:#88888F;" d="M481.129,242.935L337.531,98.025c-11.746-11.853-30.89-11.896-42.689-0.096l-17.545,17.545
	c-11.762,11.762-30.831,11.762-42.592,0L217.16,97.929c-11.8-11.8-30.943-11.756-42.689,0.096L30.871,242.935l149.835,74.541
	h150.588l149.831-74.537"/>
<path style="fill:#56545A;" d="M337.531,98.025c-11.746-11.853-30.89-11.896-42.689-0.096l-17.545,17.545
	c-5.88,5.88-13.589,8.821-21.296,8.821v193.181h75.294l149.832-74.538l0.003-0.003L337.531,98.025z"/>
<g>
	<circle style="fill:#B4D8F1;" cx="105.412" cy="317.482" r="105.412"/>
	<circle style="fill:#B4D8F1;" cx="406.588" cy="317.482" r="105.412"/>
</g>
<circle style="fill:#CFCDD2;" cx="256" cy="317.482" r="45.176"/>
<g>
	<path style="fill:#98C8ED;" d="M179.95,242.938L30.875,392.012c41.166,41.166,107.909,41.166,149.075,0
		S221.115,284.104,179.95,242.938z"/>
	<path style="fill:#98C8ED;" d="M481.126,242.938L332.052,392.012c41.166,41.166,107.909,41.166,149.075,0
		C522.293,350.846,522.291,284.104,481.126,242.938z"/>
</g>
<g>
</g>
<g>
</g>
<g>
</g>
<g>
</g>
<g>
</g>
<g>
</g>
<g>
</g>
<g>
</g>
<g>
</g>
<g>
</g>
<g>
</g>
<g>
</g>
<g>
</g>
<g>
</g>
<g>
</g>
</svg>
